<?xml version="1.0" standalone="no"?><!DOCTYPE svg PUBLIC "-//W3C//DTD SVG 1.1//EN" "http://www.w3.org/Graphics/SVG/1.1/DTD/svg11.dtd"><svg class="icon" width="64px" height="64.00px" viewBox="0 0 1024 1024" version="1.1" xmlns="http://www.w3.org/2000/svg"><path fill="#a5a5a5" d="M421.282227 953.693726c20.180076 16.708733 38.879045 31.612367 55.726632 44.479479 10.136323 7.775809 17.449286 13.191105 21.42976 16.060749L512 1024l13.515097-9.766046c3.980474-2.869644 11.293437-8.284939 21.42976-16.060749 16.847586-12.913397 35.546556-27.817031 55.726632-44.479479 57.578015-47.673115 115.202314-100.344965 168.984994-156.441873 120.154764-125.292352 204.207557-249.42759 235.866209-367.31441C1016.501898 396.566263 1021.130356 364.028205 1021.130356 332.369553c0-314.318568-286.964383-448.728982-509.361779-211.890797C290.204303-116.405713 2.869644 26.335925 2.869644 332.369553c0 31.658651 4.628458 64.242994 13.561381 97.56789 31.658651 117.88682 115.66516 241.975773 235.866209 367.31441C306.126198 853.348762 363.704213 905.974327 421.282227 953.693726zM49.154222 332.369553c0-273.680709 251.186404-391.38239 445.16507-161.903453L512 191.340445l17.680709-20.920629C723.659374-59.012837 974.845778 58.64256 974.845778 332.369553c0 27.446755-4.073043 56.004339-11.987706 85.580184-29.205569 108.768758-109.277888 227.072139-224.572772 347.273187-52.486711 54.754656-108.815042 106.223106-165.143374 152.831676C553.470982 934.346773 512 968.273368 512 968.273368s-49.293075-40.406436-61.188212-50.265052c-56.328331-46.654854-112.610378-98.123305-165.143374-152.831676-115.248599-120.201049-195.320918-238.458145-224.572772-347.273187C53.227265 388.327608 49.154222 359.816308 49.154222 332.369553z" /></svg>