<?xml version="1.0" standalone="no"?><!DOCTYPE svg PUBLIC "-//W3C//DTD SVG 1.1//EN" "http://www.w3.org/Graphics/SVG/1.1/DTD/svg11.dtd"><svg class="icon" width="64px" height="64.00px" viewBox="0 0 1024 1024" version="1.1" xmlns="http://www.w3.org/2000/svg"><path fill="#ed772f" d="M888.832 590.08h-31.232a30.0544 30.0544 0 0 1-29.2864-29.2864c0-15.616 13.6704-29.2864 29.2864-29.2864h31.232c13.6704 0 17.5616-9.728 19.5584-13.6704 1.9456-3.8912 3.8912-13.6704-3.9424-23.3984l-378.7776-378.8288c-7.8336-7.7824-21.504-7.7824-31.232 0L115.6096 494.4384a18.944 18.944 0 0 0-3.8912 23.3984c1.9456 3.9424 7.8336 13.6704 19.5584 13.6704h39.0144c15.616 0 29.2864 13.6704 29.2864 29.2864a30.0544 30.0544 0 0 1-29.2864 29.2864h-39.0144c-33.2288 0-60.5696-19.456-74.24-48.7936-11.6736-31.232-5.8368-64.4096 17.6128-87.8592l378.7776-378.7776c31.232-31.232 82.0224-31.232 113.2544 0l378.7776 378.7776c23.4496 23.4496 29.2864 56.6272 17.5616 87.8592-13.6704 29.2864-40.96 48.7936-74.1888 48.7936zM381.184 972.8H246.4768a108.3392 108.3392 0 0 1-107.4176-107.3664v-292.864c0-15.6672 13.6704-29.3376 29.2864-29.3376 15.616 0 29.2864 13.6704 29.2864 29.2864v292.864c0 27.3408 21.504 48.8448 48.8448 48.8448h134.656c15.6672 0 29.3376 13.6704 29.3376 29.2864a30.0544 30.0544 0 0 1-29.2864 29.2864z m243.3536-10.5984a30.72 30.72 0 0 1-7.1168 0.8192 30.0544 30.0544 0 0 1-29.2864-29.2864v-283.136h-156.16v283.136a30.0544 30.0544 0 0 1-29.3376 29.2864 28.7744 28.7744 0 0 1-29.2864-29.2864v-283.136c0-31.232 25.3952-58.5216 58.5728-58.5216h156.2112c31.232 0 58.5728 25.344 58.5728 58.5728v263.5776h126.976c27.2896 0 48.7936-21.504 48.7936-48.7936v-156.2112c0-15.616 13.6704-29.2864 29.2864-29.2864 15.616 0 29.2864 13.6704 29.2864 29.2864v156.16A107.0592 107.0592 0 0 1 773.632 972.8h-126.9248a29.4912 29.4912 0 0 1-22.1696-10.5984z" /></svg>