<?xml version="1.0" standalone="no"?><!DOCTYPE svg PUBLIC "-//W3C//DTD SVG 1.1//EN" "http://www.w3.org/Graphics/SVG/1.1/DTD/svg11.dtd"><svg class="icon" width="64px" height="64.00px" viewBox="0 0 1024 1024" version="1.1" xmlns="http://www.w3.org/2000/svg"><path fill="#a5a5a5" d="M512 1024c282.77 0 512-229.23 512-512S794.77 0 512 0 0 229.23 0 512s229.23 512 512 512z m391.75-499.91c-27.693 0.266-163.466-78.147-167.754-82.235-10.314-9.832-6.416-22.073 4.106-23.746 10.524-1.675 69.611-8.7 69.611-8.7-36.315-97.06-117.346-174.576-223.698-199.7-169.745-40.115-345.285 73.673-384.08 247.335-0.334 1.482-2.678 19.187-16.74 18.626-9.517-0.38-40.699-12.779-51.972-18.067-12.87-6.036-16.347-4.476-12.446-23.906C164.93 212.923 391.03 64.133 608.044 115.041 788.142 157.282 913.25 313.56 926.996 491.62c2.302 23.862-9.846 32.34-23.247 32.468v0.003z m-283.452 48.39c17.827 0 32.28 14.438 32.28 32.279 0 17.81-14.453 32.28-32.28 32.28H555.74v40.348c0 22.288-18.062 40.35-40.35 40.35-22.287 0-40.35-18.061-40.35-40.35v-40.348h-64.559c-17.826 0-32.277-14.471-32.277-32.28 0-17.843 14.451-32.279 32.278-32.279h64.56V540.2h-64.56c-17.827 0-32.278-14.468-32.278-32.278 0-17.842 14.451-32.28 32.278-32.28h64.56v-2.208l-71.636-71.62c-12.696-12.705-12.696-33.288 0-45.978s33.272-12.687 45.968 0l65.473 65.458 65.728-65.725c12.695-12.674 33.274-12.674 45.968 0 12.697 12.702 12.697 33.287 0 45.976l-70.8 70.8v3.295H620.3c17.827 0 32.28 14.439 32.28 32.28 0 17.813-14.453 32.278-32.28 32.278h-64.559v32.281h64.56l-0.004 0.001z m-323.84 45.55c14.16 9.055 10.748 27.24-4.813 28.86-15.562 1.618-64.293 5.91-64.293 5.91 38.633 90.537 116.928 161.92 218.167 185.832 169.742 40.097 343.333-68.186 382.14-241.849 0.796-3.564 0.77-3.004 2.16-10.654 1.388-7.65 3.637-19.287 18.58-14.108 14.944 5.18 51.392 15.895 62.747 18.931 11.354 3.035 10.076 7.512 8.654 18.063-0.434 3.209-1.09 6.147-1.773 9.236-50.808 225.802-271.97 366.664-493.971 314.571C244.17 890.627 119.13 734.697 105.14 556.906c-1.898-30.552 19.687-36.788 41.751-25.116 17.358 9.181 135.403 77.184 149.564 86.239v0.002z" /></svg>