<?xml version="1.0" standalone="no"?><!DOCTYPE svg PUBLIC "-//W3C//DTD SVG 1.1//EN" "http://www.w3.org/Graphics/SVG/1.1/DTD/svg11.dtd"><svg class="icon" width="64px" height="64.00px" viewBox="0 0 1024 1024" version="1.1" xmlns="http://www.w3.org/2000/svg"><path fill="#ed772f" d="M366.129656 499.869731h44.821057v321.889387h-44.821057zM613.14051 499.869731h44.821057v432.573681h-44.821057zM854.895685 114.901244H169.200404c-60.912851 0-93.389569 71.818295-53.158869 117.55645L410.950713 567.731366V499.867299L149.695642 202.855119c-9.991994-11.359128-6.240891-23.266812-4.164649-27.859602 2.076243-4.59279 8.539719-15.273216 23.668195-15.273216h685.69528c15.128475 0 21.591951 10.680426 23.669411 15.273216 2.076243 4.591574 5.827346 16.499258-4.164649 27.859602L613.14051 499.87338v67.862852l294.914043-335.279754c40.2307-45.73694 7.753982-117.555234-53.158868-117.555234z" /></svg>