<?xml version="1.0" standalone="no"?><!DOCTYPE svg PUBLIC "-//W3C//DTD SVG 1.1//EN" "http://www.w3.org/Graphics/SVG/1.1/DTD/svg11.dtd"><svg class="icon" width="64px" height="64.00px" viewBox="0 0 1024 1024" version="1.1" xmlns="http://www.w3.org/2000/svg"><path fill="#a5a5a5" d="M864.17 221.888H159.831c-21.147 0-38.291 17.494-38.291 39.072v502.08c0 21.579 17.145 39.072 38.291 39.072h704.337c21.15 0 38.293-17.493 38.293-39.072V260.96c0-21.579-17.143-39.072-38.291-39.072zM760.896 582.33H596.242c-38.066 0-68.926-31.487-68.926-70.33 0-38.842 30.859-70.33 68.926-70.33h164.654c38.068 0 68.926 31.488 68.926 70.33 0 38.843-30.859 70.33-68.926 70.33z"  /><path fill="#a5a5a5" d="M607.729 512m-33.211 0a33.211 33.211 0 1 0 66.422 0 33.211 33.211 0 1 0-66.422 0Z"  /></svg>