<?xml version="1.0" standalone="no"?><!DOCTYPE svg PUBLIC "-//W3C//DTD SVG 1.1//EN" "http://www.w3.org/Graphics/SVG/1.1/DTD/svg11.dtd"><svg class="icon" width="64px" height="64.00px" viewBox="0 0 1024 1024" version="1.1" xmlns="http://www.w3.org/2000/svg"><path fill="#ed772f" d="M897.016052 137.099312H132.402893c-66.111131 0-119.939319 53.828188-119.939319 119.939319v506.490739c0 66.111131 53.828188 119.939319 119.939319 119.939319h764.432528c66.111131 0 119.939319-53.828188 119.939319-119.939319V257.219263c0.180632-66.291762-53.647557-120.119951-119.758688-120.119951z m48.04798 120.119951v76.226495H662.375728v-124.455107h234.640324c26.552831 0 48.04798 21.675781 48.04798 48.228612zM132.402893 208.990651h234.640324v124.455107H84.354913v-76.226495c0-26.552831 21.495149-48.228612 48.04798-48.228612z m764.613159 602.767331H132.402893c-26.552831 0-48.228612-21.675781-48.228612-48.04798V405.337096h282.688305v177.018875l147.575939-55.27324 147.57594 55.27324v-177.018875H944.702769v358.192274c0.361263 26.552831-21.133886 48.228612-47.686717 48.228612z" /></svg>