<?xml version="1.0" standalone="no"?><!DOCTYPE svg PUBLIC "-//W3C//DTD SVG 1.1//EN" "http://www.w3.org/Graphics/SVG/1.1/DTD/svg11.dtd"><svg class="icon" width="64px" height="64.00px" viewBox="0 0 1024 1024" version="1.1" xmlns="http://www.w3.org/2000/svg"><path fill="#ed772f" d="M429.8 296.78633332h469.873v317.604H429.8z"  /><path fill="#ed772f" d="M430.475 610.83133332V384.88533332l-198.366-0.573-127.963 188.084V745.15333332c0 35.418 32.538 64.104 72.674 64.104h77.9c-0.003-0.274-0.021-0.548-0.021-0.824 0-47.495 38.503-86 86-86s86 38.505 86 86c0 0.276-0.019 0.55-0.021 0.824h188.978c-0.002-0.274-0.021-0.548-0.021-0.824 0-47.495 38.504-86 86-86s86 38.505 86 86c0 0.276-0.019 0.55-0.021 0.824h39.363v0.008c40.16 0 72.702-28.69 72.702-64.11V610.83133332H430.475z m-127.17-62.719H152.836l81.552-133.573h68.916l0.001 133.573z"  /><path fill="#ed772f" d="M341.507 809.26633332m-75.34 0a75.34 75.34 0 1 0 150.68 0 75.34 75.34 0 1 0-150.68 0Z"  /><path fill="#ed772f" d="M701.848 809.26633332m-75.34 0a75.34 75.34 0 1 0 150.68 0 75.34 75.34 0 1 0-150.68 0Z"  /></svg>